<?xml version="1.0" standalone="no"?><!DOCTYPE svg PUBLIC "-//W3C//DTD SVG 1.1//EN" "http://www.w3.org/Graphics/SVG/1.1/DTD/svg11.dtd"><svg t="1658120660958" class="icon" viewBox="0 0 1024 1024" version="1.1" xmlns="http://www.w3.org/2000/svg" p-id="8199" xmlns:xlink="http://www.w3.org/1999/xlink" width="200" height="200"><defs><style type="text/css"></style></defs><path d="M379.733333 827.733333l68.266667-68.266666c21.333333 4.266667 42.666667 8.533333 68.266667 8.533333 140.8 0 256-115.2 256-256 0-21.333333-4.266667-46.933333-8.533334-68.266667l68.266667-68.266666c17.066667 42.666667 25.6 85.333333 25.6 132.266666 0 187.733333-153.6 341.333333-341.333333 341.333334-51.2 4.266667-98.133333-4.266667-136.533334-21.333334z m-183.466666-183.466666c-17.066667-42.666667-25.6-85.333333-25.6-132.266667 0-187.733333 153.6-341.333333 341.333333-341.333333 46.933333 0 93.866667 8.533333 132.266667 25.6l-68.266667 68.266666c-17.066667-4.266667-42.666667-8.533333-64-8.533333-140.8 0-256 115.2-256 256 0 21.333333 4.266667 46.933333 8.533333 68.266667l-68.266666 64z" fill="#444444" p-id="8200"></path></svg>