<?xml version="1.0" standalone="no"?><!DOCTYPE svg PUBLIC "-//W3C//DTD SVG 1.1//EN" "http://www.w3.org/Graphics/SVG/1.1/DTD/svg11.dtd"><svg t="1658120782534" class="icon" viewBox="0 0 1024 1024" version="1.1" xmlns="http://www.w3.org/2000/svg" p-id="9312" xmlns:xlink="http://www.w3.org/1999/xlink" width="200" height="200"><defs><style type="text/css"></style></defs><path d="M725.333333 631.466667c-55.466667 29.866667-128 51.2-213.333333 51.2s-157.866667-21.333333-213.333333-51.2V682.666667c0 46.933333 93.866667 85.333333 213.333333 85.333333s213.333333-38.4 213.333333-85.333333v-51.2z m0-119.466667v-51.2c-55.466667 29.866667-128 51.2-213.333333 51.2s-157.866667-21.333333-213.333333-51.2V512c0 46.933333 93.866667 85.333333 213.333333 85.333333s213.333333-38.4 213.333333-85.333333z m85.333334-170.666667v341.333334c0 93.866667-132.266667 170.666667-298.666667 170.666666s-298.666667-76.8-298.666667-170.666666V341.333333c0-93.866667 132.266667-170.666667 298.666667-170.666666s298.666667 76.8 298.666667 170.666666z m-298.666667 85.333334c119.466667 0 213.333333-38.4 213.333333-85.333334s-93.866667-85.333333-213.333333-85.333333-213.333333 38.4-213.333333 85.333333 93.866667 85.333333 213.333333 85.333334z" fill="#444444" p-id="9313"></path></svg>